<svg width="110" height="61" viewBox="0 0 110 61" fill="none" xmlns="http://www.w3.org/2000/svg">
<path d="M90.2782 50.4586C89.9058 49.8783 89.3753 49.4364 88.6908 49.1322C88.0064 48.828 87.1906 48.6778 86.2465 48.6778H82.2511H82.1511V48.7778V59.9205V60.0205H82.2511H83.0629H83.1629V59.9205V56.3753H86.2465C86.6087 56.3753 86.952 56.3532 87.2763 56.3088L89.906 59.9788L89.9359 60.0205H89.9873H90.9105H91.1052L90.9918 59.8623L88.2812 56.0794C88.4226 56.0323 88.5591 55.9795 88.6908 55.921L88.692 55.9204C89.3756 55.6057 89.9056 55.1643 90.2779 54.5949L90.2784 54.5942C90.6511 54.0132 90.8354 53.3252 90.8354 52.5345C90.8354 51.7234 90.6515 51.0297 90.2782 50.4586ZM90.2782 50.4586C90.2781 50.4585 90.278 50.4583 90.2779 50.4582L90.1942 50.5129L90.2784 50.4589C90.2783 50.4588 90.2782 50.4587 90.2782 50.4586ZM7.52885 50.5227L1.9047 59.5475C1.74596 59.8022 1.41079 59.88 1.15608 59.7213C0.901359 59.5626 0.823551 59.2274 0.982288 58.9727L7.06277 49.2156C7.08365 49.1808 7.10862 49.148 7.13749 49.1181M7.52885 50.5227L7.84826 49.1875C7.80826 49.1459 7.76123 49.1133 7.71027 49.0905L7.7513 48.9993C7.75126 48.9993 7.75123 48.9993 7.75119 48.9993C7.60645 48.9342 7.44459 48.9376 7.30661 48.9993C7.24423 49.0272 7.18657 49.067 7.13749 49.1181M7.52885 50.5227L13.153 59.5475C13.3117 59.8022 13.6469 59.88 13.9016 59.7213C14.1563 59.5626 14.2342 59.2274 14.0754 58.9727L7.99493 49.2156L7.52885 50.5227ZM7.13749 49.1181L7.20945 49.1875L7.13737 49.1182C7.13741 49.1181 7.13745 49.1181 7.13749 49.1181ZM23.0163 59.9205V60.0205H23.1163H32.1168H32.2168V59.9205V59.1883V59.0883H32.1168H24.0281V48.7778V48.6778H23.9281H23.1163H23.0163V48.7778V59.9205ZM42.288 59.9205V60.0205H42.388H51.3885H51.4885V59.9205V59.1883V59.0883H51.3885H43.2998V48.7778V48.6778H43.1998H42.388H42.288V48.7778V59.9205ZM61.3465 48.6778H61.2465V48.7778V55.1928C61.2465 56.8002 61.6484 58.0289 62.4692 58.8606C63.2878 59.6901 64.4035 60.1001 65.8036 60.1001C67.2141 60.1001 68.3351 59.6903 69.1539 58.8606C69.9747 58.0289 70.3766 56.8002 70.3766 55.1928V48.7778V48.6778H70.2766H69.4648H69.3648V48.7778V55.161C69.3648 56.5382 69.0491 57.5377 68.4373 58.1802C67.8239 58.8241 66.9562 59.152 65.8195 59.152C64.6719 59.152 63.799 58.824 63.1858 58.1802C62.574 57.5377 62.2583 56.5382 62.2583 55.161V48.7778V48.6778H62.1583H61.3465ZM86.2465 55.459H83.1629V49.6101H86.2465C87.4328 49.6101 88.3128 49.8727 88.9032 50.3817L88.9046 50.3829C89.5035 50.8803 89.8077 51.5924 89.8077 52.5345C89.8077 53.4656 89.5038 54.1784 88.9039 54.6868L88.9032 54.6873C88.3128 55.1963 87.4328 55.459 86.2465 55.459ZM102.806 59.0883V54.7198H108.644H108.744V54.6198V53.9035V53.8035H108.644H102.806V49.6101H109.344H109.444V49.5101V48.7778V48.6778H109.344H101.894H101.794V48.7778V59.9205V60.0205H101.894H109.583H109.683V59.9205V59.1883V59.0883H109.583H102.806Z" fill="white" stroke="white" stroke-width="0.2" stroke-linecap="round"/>
<path d="M56.2804 0.158798C56.4698 0.244105 56.6452 0.362843 56.7968 0.512722C56.9023 0.616659 56.9926 0.731971 57.0668 0.855352L76.1151 31.0241C76.6332 31.8447 76.3792 32.9245 75.5479 33.4358C74.7165 33.9472 73.6225 33.6965 73.1044 32.876L55.9651 5.73059C55.7689 5.41984 55.3157 5.41984 55.1195 5.73059L37.9802 32.876C37.4621 33.6965 36.3681 33.9472 35.5368 33.4358C34.7054 32.9245 34.4514 31.8447 34.9696 31.0241L54.0178 0.855352C54.0921 0.731971 54.1823 0.616659 54.2878 0.512722C54.4394 0.362843 54.6149 0.244105 54.8042 0.158798C55.2622 -0.0475029 55.8013 -0.0582937 56.2804 0.158798Z" fill="#E13666"/>
</svg>
